<?xml version="1.0" encoding="UTF-8"?>
<!DOCTYPE svg PUBLIC "-//W3C//DTD SVG 1.1//EN" "http://www.w3.org/Graphics/SVG/1.1/DTD/svg11.dtd">
<svg xmlns="http://www.w3.org/2000/svg" version="1.1" width="1200px" height="1200px" style="shape-rendering:geometricPrecision; text-rendering:geometricPrecision; image-rendering:optimizeQuality; fill-rule:evenodd; clip-rule:evenodd" xmlns:xlink="http://www.w3.org/1999/xlink">
<g><path style="opacity:0.999" fill="#d5e5f1" d="M 571.5,74.5 C 717.515,69.2164 844.848,114.716 953.5,211C 1072.8,324.128 1129.63,463.295 1124,628.5C 1111.73,788.904 1042.89,918.737 917.5,1018C 782.625,1115.95 633.625,1146.29 470.5,1109C 312.382,1065.19 196.882,970.019 124,823.5C 64.9045,692.043 58.5712,558.043 105,421.5C 163.423,269.077 268.923,163.577 421.5,105C 470.217,87.8143 520.217,77.6476 571.5,74.5 Z"/></g>
<g><path style="opacity:1" fill="#323682" d="M 318.5,463.5 C 330.394,462.558 335.56,467.891 334,479.5C 331.406,484.134 327.406,486.467 322,486.5C 312.913,485.013 309.246,479.679 311,470.5C 313.015,467.588 315.515,465.255 318.5,463.5 Z"/></g>
<g><path style="opacity:1" fill="#313581" d="M 767.5,569.5 C 767.174,536.76 767.508,504.093 768.5,471.5C 774.833,470.833 781.167,470.167 787.5,469.5C 787.5,502.833 787.5,536.167 787.5,569.5C 780.833,569.5 774.167,569.5 767.5,569.5 Z"/></g>
<g><path style="opacity:1" fill="#515898" d="M 768.5,471.5 C 767.508,504.093 767.174,536.76 767.5,569.5C 766.833,553.337 766.5,537.003 766.5,520.5C 766.501,503.819 767.167,487.486 768.5,471.5 Z"/></g>
<g><path style="opacity:1" fill="#313581" d="M 237.5,475.5 C 249.123,474.658 260.123,476.825 270.5,482C 273.179,483.346 275.179,485.346 276.5,488C 273.457,491.907 270.291,495.741 267,499.5C 258.404,491.973 248.571,489.807 237.5,493C 230.833,498 230.833,503 237.5,508C 244.68,511.06 252.014,513.727 259.5,516C 278.662,525.114 283.496,539.28 274,558.5C 267.234,566.095 258.734,570.262 248.5,571C 232.425,573.32 218.425,569.154 206.5,558.5C 210.186,554.648 213.686,550.648 217,546.5C 226.869,554.759 238.035,557.259 250.5,554C 256.025,551.081 257.858,546.581 256,540.5C 254.878,538.376 253.378,536.543 251.5,535C 240.148,531.883 229.481,527.217 219.5,521C 207.072,507.395 207.739,494.395 221.5,482C 226.76,479.311 232.094,477.144 237.5,475.5 Z"/></g>
<g><path style="opacity:1" fill="#323582" d="M 622.5,511.5 C 622.067,508.834 621.567,506.168 621,503.5C 620.5,511.827 620.334,520.16 620.5,528.5C 620.5,542.167 620.5,555.833 620.5,569.5C 614.132,569.83 607.798,569.496 601.5,568.5C 603.4,538.54 605.066,508.54 606.5,478.5C 614.167,478.5 621.833,478.5 629.5,478.5C 632.421,497.527 635.587,516.527 639,535.5C 642.815,516.611 645.981,497.611 648.5,478.5C 656.087,478.186 663.587,478.519 671,479.5C 672.907,509.483 674.407,539.483 675.5,569.5C 669.167,569.5 662.833,569.5 656.5,569.5C 656.667,547.831 656.5,526.164 656,504.5C 652.584,520.743 649.751,537.077 647.5,553.5C 641.833,553.5 636.167,553.5 630.5,553.5C 627.96,539.468 625.294,525.468 622.5,511.5 Z"/></g>
<g><path style="opacity:1" fill="#313581" d="M 432.5,488.5 C 435.69,492.91 437.19,497.91 437,503.5C 431.273,504.856 425.439,505.856 419.5,506.5C 431.531,512.757 434.697,522.091 429,534.5C 423.933,542.122 416.766,546.289 407.5,547C 403.29,547.738 399.124,547.572 395,546.5C 390.685,549.106 390.518,551.939 394.5,555C 401.833,555.333 409.167,555.667 416.5,556C 433.879,559.011 440.046,568.845 435,585.5C 428.086,593.538 419.253,597.705 408.5,598C 395.725,600.04 383.725,598.04 372.5,592C 368.643,587.601 366.643,582.434 366.5,576.5C 372.537,576.171 378.537,576.504 384.5,577.5C 385.1,581.476 387.433,583.643 391.5,584C 397.5,584.667 403.5,584.667 409.5,584C 415.787,583.047 417.954,579.547 416,573.5C 414.581,572.54 413.081,571.707 411.5,571C 402.107,570.887 392.774,570.22 383.5,569C 372.241,561.14 371.574,552.307 381.5,542.5C 368.198,532.98 366.031,521.313 375,507.5C 378.222,504.612 381.722,502.112 385.5,500C 395.745,498.115 406.078,496.781 416.5,496C 420.09,494.47 423.757,493.136 427.5,492C 429.584,491.303 431.251,490.136 432.5,488.5 Z"/></g>
<g><path style="opacity:1" fill="#313581" d="M 485.5,497.5 C 497.07,495.699 505.237,500.032 510,510.5C 510.5,530.164 510.667,549.831 510.5,569.5C 503.833,569.5 497.167,569.5 490.5,569.5C 490.667,552.497 490.5,535.497 490,518.5C 487.164,511.875 482.664,510.708 476.5,515C 475,516.5 473.5,518 472,519.5C 471.5,536.163 471.333,552.83 471.5,569.5C 464.5,569.5 457.5,569.5 450.5,569.5C 450.5,546.167 450.5,522.833 450.5,499.5C 456.509,499.334 462.509,499.501 468.5,500C 469.12,502.473 469.786,504.973 470.5,507.5C 474.785,502.874 479.785,499.541 485.5,497.5 Z"/></g>
<g><path style="opacity:1" fill="#313582" d="M 706.5,497.5 C 714.553,497.225 722.553,497.725 730.5,499C 739.214,501.713 744.381,507.546 746,516.5C 746.333,529.167 746.667,541.833 747,554.5C 748.353,555.685 749.52,557.019 750.5,558.5C 749.153,562.888 747.653,567.221 746,571.5C 739.238,570.704 733.738,567.704 729.5,562.5C 719.835,570.667 708.835,573.167 696.5,570C 682.997,561.819 679.83,550.653 687,536.5C 692.471,530.368 699.304,526.868 707.5,526C 713.825,525.5 720.158,525.334 726.5,525.5C 727.23,519.12 724.563,514.953 718.5,513C 714.167,512.333 709.833,512.333 705.5,513C 701.487,514.009 697.487,514.676 693.5,515C 691.459,510.711 690.126,506.211 689.5,501.5C 695.317,500.294 700.984,498.961 706.5,497.5 Z"/></g>
<g><path style="opacity:1" fill="#313581" d="M 869.5,497.5 C 898.791,497.09 911.791,511.424 908.5,540.5C 893.5,540.5 878.5,540.5 863.5,540.5C 865.417,553.24 872.75,558.407 885.5,556C 890.193,555.29 894.36,553.457 898,550.5C 900.955,554.244 903.789,558.078 906.5,562C 891.449,572.457 875.449,574.124 858.5,567C 847.605,559.211 842.272,548.544 842.5,535C 842.546,515.821 851.546,503.321 869.5,497.5 Z"/></g>
<g><path style="opacity:1" fill="#303481" d="M 971.5,497.5 C 977.695,497.107 983.695,497.941 989.5,500C 987.752,509.403 986.419,518.903 985.5,528.5C 981.167,528.5 976.833,528.5 972.5,528.5C 972.5,524.5 972.5,520.5 972.5,516.5C 967.578,516.899 963.745,519.233 961,523.5C 959.08,526.339 957.413,529.339 956,532.5C 955.5,540.159 955.334,547.826 955.5,555.5C 959.833,555.5 964.167,555.5 968.5,555.5C 968.5,560.167 968.5,564.833 968.5,569.5C 954.167,569.5 939.833,569.5 925.5,569.5C 925.5,564.833 925.5,560.167 925.5,555.5C 928.5,555.5 931.5,555.5 934.5,555.5C 934.5,541.5 934.5,527.5 934.5,513.5C 931.5,513.5 928.5,513.5 925.5,513.5C 925.5,508.833 925.5,504.167 925.5,499.5C 933.86,499.169 942.193,499.502 950.5,500.5C 951.354,505.232 952.521,509.899 954,514.5C 957.77,506.561 963.603,500.895 971.5,497.5 Z"/></g>
<g><path style="opacity:1" fill="#313582" d="M 295.5,499.5 C 308.833,499.5 322.167,499.5 335.5,499.5C 335.5,518.167 335.5,536.833 335.5,555.5C 341.167,555.5 346.833,555.5 352.5,555.5C 352.5,560.167 352.5,564.833 352.5,569.5C 333.167,569.5 313.833,569.5 294.5,569.5C 294.5,564.833 294.5,560.167 294.5,555.5C 301.167,555.5 307.833,555.5 314.5,555.5C 314.5,541.5 314.5,527.5 314.5,513.5C 308.167,513.5 301.833,513.5 295.5,513.5C 295.5,508.833 295.5,504.167 295.5,499.5 Z"/></g>
<g><path style="opacity:1" fill="#313581" d="M 810.5,499.5 C 817.841,499.334 825.174,499.5 832.5,500C 824.786,509.942 817.453,520.108 810.5,530.5C 818.11,543.547 826.11,556.38 834.5,569C 826.479,569.832 818.479,569.665 810.5,568.5C 803.167,556.167 795.833,543.833 788.5,531.5C 796.275,521.072 803.608,510.406 810.5,499.5 Z"/></g>
<g><path style="opacity:1" fill="#a8b4d3" d="M 622.5,511.5 C 621.833,517.167 621.167,522.833 620.5,528.5C 620.334,520.16 620.5,511.827 621,503.5C 621.567,506.168 622.067,508.834 622.5,511.5 Z"/></g>
<g><path style="opacity:1" fill="#d1e1ef" d="M 397.5,510.5 C 411.422,510.672 415.589,517.339 410,530.5C 403.708,536.048 397.708,535.715 392,529.5C 388.768,521.532 390.601,515.199 397.5,510.5 Z"/></g>
<g><path style="opacity:1" fill="#d1e1ef" d="M 872.5,511.5 C 883.457,510.455 889.124,515.455 889.5,526.5C 880.859,527.498 872.192,527.831 863.5,527.5C 863.438,520.276 866.438,514.943 872.5,511.5 Z"/></g>
<g><path style="opacity:1" fill="#303481" d="M 534.5,520.5 C 551.167,520.5 567.833,520.5 584.5,520.5C 584.5,525.833 584.5,531.167 584.5,536.5C 567.833,536.5 551.167,536.5 534.5,536.5C 534.5,531.167 534.5,525.833 534.5,520.5 Z"/></g>
<g><path style="opacity:1" fill="#d0e0ee" d="M 713.5,537.5 C 717.833,537.5 722.167,537.5 726.5,537.5C 728.518,552.483 722.184,558.316 707.5,555C 702.254,546.662 704.254,540.829 713.5,537.5 Z"/></g>
<g><path style="opacity:1" fill="#313581" d="M 590.5,629.5 C 603.608,628.35 615.942,630.85 627.5,637C 634.131,642.766 638.298,649.932 640,658.5C 643,660.167 645.333,662.5 647,665.5C 647.333,673.167 647.667,680.833 648,688.5C 653.833,693.002 658.166,698.669 661,705.5C 661.667,725.5 661.667,745.5 661,765.5C 659.5,769.667 656.667,772.5 652.5,774C 648.579,774.203 644.745,774.703 641,775.5C 640.667,785.5 640.333,795.5 640,805.5C 639.5,807.333 638.333,808.5 636.5,809C 611.833,809.667 587.167,809.667 562.5,809C 560.667,808.5 559.5,807.333 559,805.5C 558.667,795.5 558.333,785.5 558,775.5C 553.92,774.7 549.753,774.2 545.5,774C 541.942,772.108 539.442,769.275 538,765.5C 537.333,745.5 537.333,725.5 538,705.5C 540.834,698.669 545.167,693.002 551,688.5C 551.333,680.833 551.667,673.167 552,665.5C 553.667,662.5 556,660.167 559,658.5C 562.983,641.681 573.483,632.015 590.5,629.5 Z"/></g>
<g><path style="opacity:1" fill="#cfdeed" d="M 590.5,643.5 C 621.457,639.94 632.624,652.94 624,682.5C 620.138,687.036 615.305,689.869 609.5,691C 602.833,691.667 596.167,691.667 589.5,691C 577.133,688.118 571.133,680.285 571.5,667.5C 571.266,654.087 577.599,646.087 590.5,643.5 Z"/></g>
<g><path style="opacity:1" fill="#313581" d="M 592.5,650.5 C 604.019,648.655 613.186,652.322 620,661.5C 620.81,666.257 620.476,670.924 619,675.5C 618.25,676.126 617.416,676.626 616.5,677C 610.833,677.167 605.167,677.333 599.5,677.5C 593.063,677.627 586.73,677.127 580.5,676C 577.327,668.9 577.994,662.233 582.5,656C 585.767,653.871 589.101,652.038 592.5,650.5 Z"/></g>
<g><path style="opacity:1" fill="#d1e1ef" d="M 561.5,698.5 C 565.514,698.334 569.514,698.501 573.5,699C 586.112,705.583 599.446,707.25 613.5,704C 617.928,703.303 621.928,701.637 625.5,699C 633.455,697.05 640.289,698.883 646,704.5C 647.044,706.715 647.71,709.048 648,711.5C 648.5,718.826 648.666,726.159 648.5,733.5C 645.833,733.5 643.167,733.5 640.5,733.5C 640.916,727.048 640.416,720.715 639,714.5C 634.63,711.441 630.963,712.108 628,716.5C 627.5,738.831 627.333,761.164 627.5,783.5C 623.989,782.942 620.489,782.276 617,781.5C 613.756,781.849 610.59,782.515 607.5,783.5C 606.668,775.187 606.168,766.853 606,758.5C 603.019,754.304 599.186,753.471 594.5,756C 593.874,756.75 593.374,757.584 593,758.5C 592.5,766.827 592.334,775.16 592.5,783.5C 589.027,782.758 585.527,782.091 582,781.5C 578.473,782.091 574.973,782.758 571.5,783.5C 571.667,760.831 571.5,738.164 571,715.5C 567.531,712.084 563.864,711.75 560,714.5C 558.584,720.715 558.084,727.048 558.5,733.5C 555.833,733.5 553.167,733.5 550.5,733.5C 550.154,724.441 550.654,715.441 552,706.5C 554.161,702.495 557.328,699.829 561.5,698.5 Z"/></g>
<g><path style="opacity:1" fill="#333783" d="M 589.5,719.5 C 596.615,719.075 603.615,719.575 610.5,721C 611.333,721.833 612.167,722.667 613,723.5C 613.879,728.287 613.545,732.953 612,737.5C 610.829,738.893 609.329,739.727 607.5,740C 601.5,740.667 595.5,740.667 589.5,740C 586.143,737.307 584.809,733.807 585.5,729.5C 585.667,727.5 585.833,725.5 586,723.5C 587.376,722.295 588.542,720.962 589.5,719.5 Z"/></g>
<g><path style="opacity:1" fill="#949fc5" d="M 551.5,740.5 C 551.5,742.5 551.5,744.5 551.5,746.5C 553.5,746.5 555.5,746.5 557.5,746.5C 557.5,744.5 557.5,742.5 557.5,740.5C 558.468,742.607 558.802,744.941 558.5,747.5C 555.833,747.5 553.167,747.5 550.5,747.5C 550.198,744.941 550.532,742.607 551.5,740.5 Z"/></g>
<g><path style="opacity:1" fill="#d5e6f1" d="M 551.5,740.5 C 553.5,740.5 555.5,740.5 557.5,740.5C 557.5,742.5 557.5,744.5 557.5,746.5C 555.5,746.5 553.5,746.5 551.5,746.5C 551.5,744.5 551.5,742.5 551.5,740.5 Z"/></g>
<g><path style="opacity:1" fill="#949fc5" d="M 641.5,740.5 C 641.5,742.5 641.5,744.5 641.5,746.5C 643.5,746.5 645.5,746.5 647.5,746.5C 647.5,744.5 647.5,742.5 647.5,740.5C 648.468,742.607 648.802,744.941 648.5,747.5C 645.833,747.5 643.167,747.5 640.5,747.5C 640.198,744.941 640.532,742.607 641.5,740.5 Z"/></g>
<g><path style="opacity:1" fill="#d5e6f1" d="M 641.5,740.5 C 643.5,740.5 645.5,740.5 647.5,740.5C 647.5,742.5 647.5,744.5 647.5,746.5C 645.5,746.5 643.5,746.5 641.5,746.5C 641.5,744.5 641.5,742.5 641.5,740.5 Z"/></g>
<g><path style="opacity:1" fill="#b6c3dc" d="M 551.5,753.5 C 558.158,752.344 560.158,754.844 557.5,761C 550.75,762.469 548.75,759.969 551.5,753.5 Z"/></g>
<g><path style="opacity:1" fill="#b6c3dc" d="M 641.5,753.5 C 648.158,752.344 650.158,754.844 647.5,761C 640.75,762.469 638.75,759.969 641.5,753.5 Z"/></g>
<g><path style="opacity:1" fill="#cfdeed" d="M 578.5,788.5 C 583.034,788.267 587.368,789.1 591.5,791C 592.38,792.356 592.714,793.856 592.5,795.5C 585.5,795.5 578.5,795.5 571.5,795.5C 571.238,794.022 571.571,792.689 572.5,791.5C 574.604,790.481 576.604,789.481 578.5,788.5 Z"/></g>
<g><path style="opacity:1" fill="#cfdfed" d="M 613.5,788.5 C 617.747,788.178 621.747,789.011 625.5,791C 627.107,792.049 627.773,793.549 627.5,795.5C 620.5,795.5 613.5,795.5 606.5,795.5C 606.343,794.127 606.51,792.793 607,791.5C 609.294,790.578 611.461,789.578 613.5,788.5 Z"/></g>
</svg>
